<svg width="29" height="24" viewBox="0 0 29 24" fill="none" xmlns="http://www.w3.org/2000/svg">
<rect width="24" height="24" rx="12" fill="#FCE6E5"/>
<path d="M6.97038 8.25L4.28038 15.5H5.32038L5.88038 13.93H9.21038L9.78038 15.5H10.8804L8.15038 8.25H6.97038ZM6.19038 13.06L7.53038 9.28L8.89038 13.06H6.19038ZM14.7619 15.5H15.8419L17.8419 9.18V15.5H18.8619V8.25H17.1519L15.3019 14.29L13.4519 8.25H11.7419V15.5H12.7619V9.18L14.7619 15.5Z" fill="#7C7C7A"/>
<g clip-path="url(#clip0_5240_30085)">
<path d="M22.0799 12.0436C25.3935 12.0674 28.099 9.40039 28.1227 6.08676C28.1465 2.77314 25.4795 0.0676778 22.1659 0.0439462C18.8522 0.0202147 16.1468 2.6872 16.123 6.00082C16.0993 9.31445 18.7663 12.0199 22.0799 12.0436Z" fill="#F0F0F0"/>
<path d="M22.1662 0.0435888C19.7875 0.026553 17.7223 1.39613 16.7374 3.39611L27.5464 3.47352C26.5903 1.45964 24.5449 0.0606244 22.1662 0.0435888Z" fill="#FF9811"/>
<path d="M22.0804 12.0432C24.4591 12.0602 26.5244 10.6907 27.5092 8.69069L16.7002 8.61328C17.6563 10.6272 19.7017 12.0262 22.0804 12.0432Z" fill="#6DA544"/>
<path d="M22.1138 7.34843C22.8341 7.35359 23.4222 6.77381 23.4274 6.05346C23.4326 5.33311 22.8528 4.74497 22.1324 4.73981C21.4121 4.73465 20.8239 5.31443 20.8188 6.03478C20.8136 6.75513 21.3934 7.34327 22.1138 7.34843Z" fill="#F0F0F0"/>
<path fill-rule="evenodd" clip-rule="evenodd" d="M22.2854 5.71283C22.3062 5.71414 22.3262 5.71714 22.3454 5.7214L22.4022 5.35242L22.7303 4.38346L22.5162 5.38383L22.3758 5.72967C22.3952 5.73573 22.4135 5.74391 22.4314 5.75356L22.5819 5.41171L23.1497 4.56068L22.6834 5.47171L22.4585 5.769C22.4756 5.78034 22.4913 5.79252 22.5064 5.80638L22.74 5.51519L23.5088 4.84024L22.8227 5.59951L22.5284 5.82877C22.5414 5.84347 22.5543 5.85965 22.5646 5.87708L22.8661 5.65634L23.7831 5.20323L22.9241 5.759L22.5806 5.9044C22.5893 5.92203 22.597 5.94114 22.6031 5.96065L22.951 5.82555L23.954 5.62497L22.9807 5.93933L22.611 5.99077C22.6151 6.01027 22.6177 6.0303 22.6183 6.05073L22.9894 6.01031L24.0103 6.07668L22.9885 6.1281L22.6181 6.08237C22.6172 6.10269 22.6143 6.12267 22.6099 6.14212L22.9788 6.19905L23.9476 6.52754L22.9475 6.31261L22.6016 6.17264C22.5954 6.19197 22.5872 6.21054 22.5783 6.22847L22.9196 6.37835L23.7706 6.94636L22.8602 6.48038L22.5619 6.25555C22.5513 6.27209 22.5382 6.2884 22.525 6.30313L22.816 6.53637L23.4911 7.30581L22.7321 6.61907L22.5027 6.32509C22.4874 6.33874 22.4715 6.35101 22.4543 6.36168L22.6749 6.66269L23.1281 7.57998L22.5726 6.7207L22.427 6.37715C22.4089 6.38612 22.3905 6.39404 22.371 6.40003L22.5064 6.74753L22.7062 7.75097L22.392 6.7773L22.3405 6.40765C22.3212 6.41185 22.3012 6.41456 22.2804 6.41537L22.3213 6.786L22.2548 7.80722L22.2029 6.78515L22.249 6.41514C22.2282 6.41404 22.2083 6.41104 22.1889 6.40656L22.1323 6.77544L21.8043 7.74451L22.0187 6.74404L22.1585 6.39851C22.1396 6.39224 22.1209 6.38448 22.1031 6.37483L21.9526 6.71626L21.3847 7.5675L21.8512 6.65679L22.0759 6.35897C22.0588 6.34805 22.0432 6.33556 22.0279 6.32169L21.7946 6.61235L21.026 7.28815L21.7118 6.52846L22.0059 6.29941C21.9928 6.2845 21.9803 6.268 21.9697 6.25131L21.6688 6.47185L20.7514 6.92474L21.6104 6.36897L21.9541 6.224C21.9449 6.20594 21.9374 6.18726 21.9316 6.16785L21.5836 6.30284L20.5804 6.50342L21.5537 6.18885L21.9233 6.1372C21.9193 6.11769 21.9168 6.09767 21.9161 6.07735L21.5451 6.11777L20.5241 6.05171L21.546 5.99997L21.9163 6.0457C21.9173 6.02528 21.9201 6.0053 21.9244 5.98585L21.5556 5.92913L20.5868 5.60085L21.5871 5.81578L21.9328 5.95585C21.9392 5.93642 21.947 5.91743 21.9561 5.89992L21.6149 5.74962L20.7639 5.18161L21.6747 5.6478L21.9724 5.87284C21.9833 5.85556 21.996 5.83956 22.0093 5.82505L21.7185 5.5916L21.0436 4.82259L21.8025 5.50848L22.0316 5.80298C22.0471 5.78934 22.0629 5.77738 22.0802 5.76629L21.8597 5.46581L21.4063 4.5482L21.962 5.40727L22.1076 5.75124C22.1255 5.74185 22.1443 5.73394 22.1635 5.72815L22.0285 5.38034L21.8285 4.377L22.1425 5.35056L22.1938 5.72032C22.2132 5.71633 22.2333 5.71362 22.254 5.7126L22.2133 5.34197L22.2797 4.32086L22.3316 5.34282L22.2854 5.71283ZM22.1381 4.29606C22.1431 4.34436 22.1082 4.38783 22.0599 4.39404C22.0113 4.39983 21.9669 4.36639 21.96 4.31786C21.8657 4.33433 21.7736 4.35886 21.685 4.38988C21.7024 4.43519 21.6803 4.48626 21.6346 4.50478C21.5896 4.52298 21.538 4.50207 21.5187 4.45695C21.4321 4.49729 21.3496 4.54454 21.2715 4.59765C21.3001 4.63722 21.2918 4.6922 21.2528 4.72166C21.2139 4.75113 21.1589 4.74406 21.1287 4.70617C21.0924 4.73629 21.0571 4.76831 21.023 4.80183C20.9895 4.83493 20.957 4.86952 20.9262 4.9055C20.9637 4.93636 20.9701 4.99165 20.9398 5.02996C20.9104 5.0686 20.8546 5.07582 20.8159 5.04696C20.7614 5.12437 20.7132 5.20637 20.6716 5.29222C20.716 5.31191 20.7367 5.36392 20.7177 5.40877C20.6986 5.45393 20.6469 5.47547 20.6014 5.45715C20.5696 5.54572 20.5443 5.6371 20.5263 5.73148C20.5745 5.73924 20.6076 5.78425 20.6008 5.83236C20.5942 5.88057 20.5499 5.91465 20.5018 5.90891C20.4976 5.95598 20.4954 6.00338 20.495 6.05143C20.4947 6.09906 20.4962 6.1467 20.4997 6.19361C20.5479 6.18866 20.5917 6.22327 20.5977 6.27168C20.6038 6.3202 20.57 6.36431 20.5217 6.37148C20.5384 6.46611 20.5623 6.55815 20.5929 6.64686C20.6386 6.6294 20.69 6.65136 20.7084 6.6968C20.7268 6.74212 20.7054 6.79383 20.6607 6.81309C20.7011 6.89922 20.7481 6.98179 20.8015 7.05997C20.8406 7.03167 20.8963 7.04012 20.9251 7.07885C20.9549 7.11759 20.9477 7.1731 20.9097 7.20342C20.94 7.23962 20.9721 7.27468 21.0051 7.30825C21.0387 7.34226 21.0735 7.37447 21.1094 7.40563C21.1401 7.36817 21.1952 7.36169 21.2337 7.39171C21.2722 7.42193 21.2798 7.47671 21.2506 7.51608C21.3279 7.57009 21.4097 7.61851 21.4958 7.65967C21.5157 7.61567 21.5676 7.59498 21.6123 7.61414C21.6578 7.63342 21.6791 7.6848 21.6611 7.72986C21.7493 7.76214 21.841 7.78756 21.935 7.80538C21.9426 7.75738 21.9875 7.72415 22.036 7.73096C22.0842 7.73744 22.1185 7.78151 22.1128 7.82994C22.1597 7.83388 22.2069 7.83633 22.255 7.83668C22.3028 7.83702 22.3501 7.83524 22.3975 7.83198C22.392 7.78347 22.4268 7.7399 22.4752 7.7341C22.524 7.728 22.5683 7.76187 22.5752 7.80997C22.6695 7.7935 22.7619 7.76939 22.8502 7.73838C22.8327 7.69306 22.855 7.64199 22.9006 7.62337C22.9457 7.60485 22.9972 7.62628 23.017 7.67056C23.1031 7.63064 23.1855 7.58339 23.2638 7.5305C23.2354 7.49071 23.2436 7.43605 23.2824 7.40638C23.3212 7.37691 23.3765 7.38419 23.4067 7.42209C23.4433 7.39144 23.4781 7.35973 23.5123 7.32621C23.5456 7.29311 23.5781 7.25852 23.6095 7.22276C23.572 7.1919 23.5652 7.13628 23.5955 7.09797C23.6254 7.05966 23.6806 7.05201 23.7194 7.08087C23.7736 7.00346 23.822 6.92157 23.8636 6.83603C23.8195 6.81613 23.7986 6.76412 23.818 6.71907C23.8368 6.6739 23.8885 6.65268 23.9337 6.67078C23.9661 6.58253 23.991 6.49084 24.009 6.39645C23.961 6.38859 23.9276 6.34401 23.9344 6.29558C23.9411 6.24726 23.9854 6.21328 24.0336 6.21892C24.0377 6.17206 24.0399 6.12445 24.0402 6.07682C24.0406 6.02877 24.0391 5.98134 24.0356 5.93422C23.9873 5.93927 23.9436 5.90456 23.9376 5.85625C23.9314 5.80805 23.9655 5.76352 24.0136 5.75646C23.9969 5.66182 23.9734 5.5701 23.9422 5.48108C23.8967 5.49874 23.8453 5.47647 23.8272 5.43104C23.8085 5.38592 23.8302 5.33421 23.8745 5.31516C23.8341 5.22872 23.7869 5.14603 23.7338 5.06786C23.6946 5.09616 23.6395 5.08814 23.6101 5.04909C23.5805 5.01035 23.5881 4.95515 23.626 4.92484C23.5951 4.88842 23.5631 4.85337 23.5303 4.81979C23.4966 4.78579 23.4622 4.75326 23.426 4.72262C23.3953 4.76008 23.3399 4.76635 23.3015 4.73634C23.2631 4.70632 23.2558 4.65123 23.2847 4.61206C23.2071 4.55785 23.1254 4.50942 23.0399 4.46785C23.0195 4.51268 22.9677 4.53285 22.9228 4.514C22.8776 4.49484 22.856 4.44346 22.8741 4.39839C22.7863 4.36612 22.6942 4.34027 22.6002 4.32245C22.5926 4.37087 22.5478 4.40368 22.4991 4.39719C22.4508 4.39028 22.4166 4.34632 22.4228 4.2981C22.3755 4.29417 22.3282 4.29182 22.2804 4.29147C22.2323 4.29113 22.1851 4.2928 22.1381 4.29606ZM22.2819 4.03892C22.8409 4.04292 23.3456 4.27325 23.7097 4.64249C24.0735 5.01142 24.2963 5.51946 24.2923 6.0787C24.2883 6.63752 24.0583 7.14254 23.6892 7.50643C23.3199 7.8701 22.8119 8.09307 22.2529 8.08907C21.6938 8.08506 21.1892 7.85484 20.8253 7.48591C20.4612 7.11678 20.2383 6.60852 20.2423 6.0497C20.2463 5.49046 20.4769 4.98566 20.8458 4.62198C21.2149 4.25799 21.7228 4.03491 22.2819 4.03892Z" fill="#0437A0"/>
</g>
<defs>
<clipPath id="clip0_5240_30085">
<rect width="12" height="12" fill="white" transform="translate(16.166 0.000976562) rotate(0.410334)"/>
</clipPath>
</defs>
</svg>
