<svg width="17" height="16" viewBox="0 0 17 16" fill="none" xmlns="http://www.w3.org/2000/svg">
<path d="M8.85671 7.24634C8.79004 7.23967 8.71004 7.23967 8.63671 7.24634C7.05004 7.19301 5.79004 5.89301 5.79004 4.29301C5.79004 2.65967 7.11004 1.33301 8.75004 1.33301C10.3834 1.33301 11.71 2.65967 11.71 4.29301C11.7034 5.89301 10.4434 7.19301 8.85671 7.24634Z" stroke="#313131" stroke-linecap="round" stroke-linejoin="round"/>
<path d="M5.52348 9.70699C3.91014 10.787 3.91014 12.547 5.52348 13.6203C7.35681 14.847 10.3635 14.847 12.1968 13.6203C13.8101 12.5403 13.8101 10.7803 12.1968 9.70699C10.3701 8.48699 7.36348 8.48699 5.52348 9.70699Z" stroke="#313131" stroke-linecap="round" stroke-linejoin="round"/>
</svg>
