<svg width="17" height="16" viewBox="0 0 17 16" fill="none" xmlns="http://www.w3.org/2000/svg">
<path d="M6.85671 7.24634C6.79004 7.23967 6.71004 7.23967 6.63671 7.24634C5.05004 7.19301 3.79004 5.89301 3.79004 4.29301C3.79004 2.65967 5.11004 1.33301 6.75004 1.33301C8.38337 1.33301 9.71004 2.65967 9.71004 4.29301C9.70337 5.89301 8.44337 7.19301 6.85671 7.24634Z" stroke="#313131" stroke-linecap="round" stroke-linejoin="round"/>
<path d="M11.6902 2.66699C12.9835 2.66699 14.0235 3.71366 14.0235 5.00033C14.0235 6.26033 13.0235 7.28699 11.7768 7.33366C11.7235 7.32699 11.6635 7.32699 11.6035 7.33366" stroke="#313131" stroke-linecap="round" stroke-linejoin="round"/>
<path d="M3.52348 9.70699C1.91014 10.787 1.91014 12.547 3.52348 13.6203C5.35681 14.847 8.36348 14.847 10.1968 13.6203C11.8101 12.5403 11.8101 10.7803 10.1968 9.70699C8.37014 8.48699 5.36348 8.48699 3.52348 9.70699Z" stroke="#313131" stroke-linecap="round" stroke-linejoin="round"/>
<path d="M12.9766 13.333C13.4566 13.233 13.9099 13.0397 14.2832 12.753C15.3232 11.973 15.3232 10.6863 14.2832 9.90634C13.9166 9.62634 13.4699 9.43967 12.9966 9.33301" stroke="#313131" stroke-linecap="round" stroke-linejoin="round"/>
</svg>
