<svg width="28" height="29" viewBox="0 0 28 29" fill="none" xmlns="http://www.w3.org/2000/svg">
<path d="M13.9999 27.3538C7.08159 27.3538 1.45825 21.7305 1.45825 14.8122C1.45825 7.89384 7.08159 2.27051 13.9999 2.27051C20.9183 2.27051 26.5416 7.89384 26.5416 14.8122C26.5416 21.7305 20.9183 27.3538 13.9999 27.3538ZM13.9999 4.02051C8.04992 4.02051 3.20825 8.86217 3.20825 14.8122C3.20825 20.7622 8.04992 25.6038 13.9999 25.6038C19.9499 25.6038 24.7916 20.7622 24.7916 14.8122C24.7916 8.86217 19.9499 4.02051 13.9999 4.02051Z" fill="#E07800"/>
<path d="M13.9999 15.9788C13.3466 15.9788 12.8333 15.4538 12.8333 14.8122C12.8333 14.1705 13.3583 13.6455 13.9999 13.6455C14.6416 13.6455 15.1666 14.1705 15.1666 14.8122C15.1666 15.4538 14.6533 15.9788 13.9999 15.9788Z" fill="#E07800"/>
<path d="M18.6667 15.9788C18.0133 15.9788 17.5 15.4538 17.5 14.8122C17.5 14.1705 18.025 13.6455 18.6667 13.6455C19.3083 13.6455 19.8333 14.1705 19.8333 14.8122C19.8333 15.4538 19.32 15.9788 18.6667 15.9788Z" fill="#E07800"/>
<path d="M9.33341 15.9788C8.68008 15.9788 8.16675 15.4538 8.16675 14.8122C8.16675 14.1705 8.69175 13.6455 9.33341 13.6455C9.97508 13.6455 10.5001 14.1705 10.5001 14.8122C10.5001 15.4538 9.98675 15.9788 9.33341 15.9788Z" fill="#E07800"/>
</svg>
