<svg width="36" height="36" viewBox="0 0 36 36" fill="none" xmlns="http://www.w3.org/2000/svg">
<rect width="36" height="36" rx="18" fill="#FCE6E5"/>
<path d="M18.0134 11.9404C15.8067 11.9404 14.0134 13.7338 14.0134 15.9404V17.8671C14.0134 18.2738 13.8401 18.8938 13.6334 19.2404L12.8667 20.5138C12.3934 21.3004 12.7201 22.1738 13.5867 22.4671C16.4601 23.4271 19.5601 23.4271 22.4334 22.4671C23.2401 22.2004 23.5934 21.2471 23.1534 20.5138L22.3867 19.2404C22.1867 18.8938 22.0134 18.2738 22.0134 17.8671V15.9404C22.0134 13.7404 20.2134 11.9404 18.0134 11.9404Z" stroke="#E00800" stroke-width="1.5" stroke-miterlimit="10" stroke-linecap="round"/>
<path d="M19.2469 12.133C19.0403 12.073 18.8269 12.0263 18.6069 11.9996C17.9669 11.9196 17.3536 11.9663 16.7803 12.133C16.9736 11.6396 17.4536 11.293 18.0136 11.293C18.5736 11.293 19.0536 11.6396 19.2469 12.133Z" stroke="#E00800" stroke-width="1.5" stroke-miterlimit="10" stroke-linecap="round" stroke-linejoin="round"/>
<path d="M20.0137 22.707C20.0137 23.807 19.1137 24.707 18.0137 24.707C17.467 24.707 16.9603 24.4804 16.6003 24.1204C16.2403 23.7604 16.0137 23.2537 16.0137 22.707" stroke="#E00800" stroke-width="1.5" stroke-miterlimit="10"/>
</svg>
