<svg width="101" height="100" viewBox="0 0 101 100" fill="none" xmlns="http://www.w3.org/2000/svg">
<g clip-path="url(#clip0_110_304619)">
<path d="M100.129 46.1282V53.5215C99.9121 54.1123 99.9802 54.7388 99.9044 55.3482C98.7877 64.2078 95.7716 72.3002 90.3287 79.4507C81.9733 90.4247 71.0256 97.009 57.3774 99.0708C55.8755 99.2982 54.3628 99.4451 52.8532 99.6292H47.6006C45.7105 99.3848 43.8049 99.2162 41.9303 98.8852C30.3067 96.8281 20.598 91.3388 12.8118 82.4714C6.67441 75.4818 2.91434 67.3553 1.27018 58.2189C0.908246 56.2097 0.83555 54.1696 0.52002 52.1588C0.52002 50.408 0.52002 48.6571 0.52002 46.9062C0.586528 46.5582 0.690159 46.2133 0.713359 45.8637C1.08612 40.2769 2.55395 34.9454 4.67451 29.8057C6.88322 24.4525 10.119 19.7226 14.1079 15.5356C22.1076 7.13387 31.9138 2.21685 43.3688 0.544845C44.8381 0.329851 46.3184 0.19374 47.7939 0.0205078H52.8517C53.9499 0.346865 55.096 0.261796 56.2174 0.393267C62.2372 1.10321 67.9306 2.9005 73.3117 5.63046C78.5551 8.29081 83.1535 11.8235 87.0728 16.2394C92.4028 22.2422 96.3392 28.9905 98.4459 36.7752C99.278 39.8485 99.7064 42.9853 100.126 46.1266L100.129 46.1282Z" fill="url(#paint0_linear_110_304619)" stroke="white" stroke-width="0.038668" stroke-linecap="round" stroke-linejoin="round"/>
<path d="M100.5 49.2986C100.426 49.8431 100.294 50.386 100.283 50.9304C100.092 60.6191 97.2039 69.4524 91.8754 77.5139C91.7177 77.7521 91.5383 77.9764 91.3001 78.3027C89.8369 76.8488 88.4247 75.4583 87.0373 74.0461C86.8996 73.9069 86.8749 73.6301 86.8517 73.412C86.8208 73.1212 86.8099 72.8211 86.8455 72.5319C87.3265 68.7533 86.3073 65.3721 84.4032 62.1132C82.8766 59.5008 81.6424 56.7167 80.3215 53.9883C80.0755 53.4794 79.9363 52.8747 79.9193 52.3086C79.8667 50.6103 79.876 48.9104 79.91 47.2121C79.9239 46.4867 79.7028 45.9964 79.0609 45.6004C77.7833 44.8132 76.5846 43.8944 75.29 43.1396C74.8414 42.8782 74.1732 42.7746 73.6628 42.8798C71.8485 43.2494 70.0652 43.7614 68.2571 44.1697C67.8766 44.2563 67.4048 44.2362 67.0491 44.0877C63.4715 42.5843 59.9001 41.0655 56.3551 39.4847C55.9715 39.313 55.5817 38.7624 55.5152 38.3386C54.9661 34.8368 54.4804 31.3258 54.0133 27.8132C53.9747 27.5193 54.12 27.1048 54.3288 26.8882C55.758 25.4065 57.215 23.9526 58.6952 22.5219C58.9242 22.3007 59.3186 22.1445 59.6372 22.1414C62.61 22.112 65.5843 22.1027 68.5571 22.1522C68.9252 22.1584 69.4016 22.46 69.6305 22.7709C70.4611 23.9 71.267 25.0585 71.9676 26.2695C72.4626 27.1249 73.154 27.4559 74.0696 27.5997C76.7671 28.022 79.4522 28.5309 82.1543 28.9144C82.8643 29.015 83.6608 28.9113 84.3507 28.6917C87.5725 27.6662 90.7695 26.5665 94.1754 25.4281C95.1638 27.6477 96.2449 29.8007 97.0987 32.0419C99.0151 37.0687 100.144 42.2734 100.262 47.6761C100.269 48.0226 100.416 48.366 100.498 48.7093V49.2971L100.5 49.2986Z" fill="white"/>
<path d="M34.3979 90.9662C32.9084 90.4713 31.4545 90.0119 30.0238 89.4891C29.7686 89.3963 29.5288 89.0699 29.4175 88.7977C28.4059 86.3245 27.4098 83.8436 26.4462 81.3503C26.2885 80.9404 26.2668 80.4594 26.2653 80.0124C26.2529 74.9159 26.2235 69.8195 26.2854 64.723C26.2977 63.6651 25.8971 63.3186 24.9552 63.1485C22.6831 62.7371 20.4187 62.273 18.1635 61.775C17.8155 61.6977 17.4103 61.3883 17.2433 61.0728C16.2518 59.1966 15.248 57.3189 14.4081 55.3731C14.091 54.64 14.238 53.7166 14.1019 52.8906C13.7322 50.6525 14.5721 49.0208 16.2796 47.5514C18.2316 45.8732 19.9562 43.9321 21.7813 42.1085C22.0071 41.8827 22.25 41.6723 22.5779 41.3691C23.5106 43.2252 24.4742 44.9622 25.263 46.7749C25.7409 47.8715 26.3735 48.2381 27.5645 48.2056C30.7631 48.1175 33.9679 48.1948 37.1681 48.1623C37.8796 48.1546 38.291 48.399 38.6467 49.013C40.0063 51.3548 41.4355 53.6563 42.7997 55.9949C43.157 56.6074 43.5792 56.8533 44.2892 56.8332C45.921 56.7884 47.5558 56.8363 49.1892 56.8116C49.8852 56.8008 50.0971 56.9848 49.93 57.7365C49.4506 59.8957 49.1026 62.0843 48.6138 64.2405C48.4792 64.836 48.1312 65.4562 47.7074 65.8985C45.924 67.7639 44.0881 69.5782 42.2429 71.3832C41.6938 71.9199 41.4169 72.486 41.4308 73.2764C41.4556 74.6422 41.7711 76.2059 41.222 77.3195C40.69 78.3976 39.2237 79.0163 38.1595 79.8267C37.3289 80.4609 36.5293 81.1477 35.6415 81.689C34.7413 82.2381 34.4923 82.9434 34.5232 83.9611C34.5912 86.1807 34.534 88.4033 34.5247 90.6244C34.5247 90.6847 34.4814 90.7435 34.3948 90.9662H34.3979Z" fill="white"/>
<path d="M46.634 8.29677C46.0648 9.96877 45.5559 11.5325 44.9821 13.073C44.9063 13.2772 44.5181 13.4009 44.2505 13.4953C43.0843 13.9036 41.8825 14.2253 40.7472 14.7064C40.1966 14.9399 39.6196 15.3637 39.3057 15.8602C37.8579 18.1478 36.5231 20.5066 35.0878 22.8034C34.7598 23.3293 34.2572 23.8042 33.7313 24.1383C31.8582 25.3261 29.8908 26.3702 28.0548 27.6091C26.5669 28.6129 24.949 29.0073 23.2229 29.227C20.3228 29.5951 17.432 30.0204 14.535 30.4102C13.9735 30.486 13.7585 30.7752 13.7662 31.3305C13.7848 32.67 13.7399 34.0094 13.7941 35.3473C13.808 35.6953 14.0137 36.099 14.255 36.362C15.0268 37.2034 15.9084 37.9489 16.6431 38.8182C16.9834 39.2203 17.2402 39.8204 17.2618 40.3432C17.3361 42.1297 17.2912 43.9208 17.2912 45.8666C16.9169 45.667 16.6617 45.5557 16.4343 45.4041C13.5791 43.5078 10.7177 41.6224 7.89025 39.6859C7.46955 39.3982 7.08441 38.9079 6.91428 38.4299C6.05585 36.0031 5.24227 33.5578 4.49211 31.0954C4.33744 30.5881 4.35446 29.9044 4.56945 29.4296C10.0046 17.4673 18.742 8.84431 30.8188 3.64269C31.1807 3.48647 31.7453 3.57154 32.1242 3.74323C32.7104 4.00927 33.2642 4.3944 33.7514 4.82129C35.6075 6.44535 37.8579 6.92792 40.212 7.23417C42.2986 7.5064 44.3665 7.91473 46.6356 8.29522L46.634 8.29677Z" fill="white"/>
<path d="M55.7256 14.986C56.816 12.8113 57.8013 10.7913 58.8577 8.80994C58.9907 8.56092 59.4965 8.39851 59.8337 8.38923C61.5304 8.34747 63.2303 8.40161 64.9286 8.35056C65.4947 8.33355 66.0979 8.19898 66.6098 7.9577C68.4102 7.10855 70.1658 6.1666 71.9677 5.32209C72.325 5.15504 72.8942 5.10555 73.2283 5.27569C78.0447 7.71641 82.3214 10.9011 86.1031 14.7524C86.1666 14.8174 86.1959 14.9179 86.3166 15.1391C84.7219 16.1893 83.1737 17.3231 81.5032 18.2341C81.0206 18.497 80.1792 18.1583 79.5172 18.0253C75.72 17.2674 71.9058 16.576 68.2726 15.1623C67.8843 15.0107 67.3739 15.0262 66.9563 15.1206C65.0832 15.5459 63.2287 16.0486 61.3572 16.4739C60.9411 16.5683 60.4493 16.5605 60.0425 16.4368C58.6489 16.0115 57.2769 15.515 55.7271 14.9875L55.7256 14.986Z" fill="white"/>
<path d="M86.4404 43.5585C90.5407 43.5585 93.8646 40.2345 93.8646 36.1342C93.8646 32.0339 90.5407 28.71 86.4404 28.71C82.3401 28.71 79.0161 32.0339 79.0161 36.1342C79.0161 40.2345 82.3401 43.5585 86.4404 43.5585Z" stroke="#313131" stroke-width="1.54672" stroke-miterlimit="10"/>
<path d="M25.5768 73.41C29.6771 73.41 33.0011 70.0861 33.0011 65.9858C33.0011 61.8855 29.6771 58.5615 25.5768 58.5615C21.4765 58.5615 18.1526 61.8855 18.1526 65.9858C18.1526 70.0861 21.4765 73.41 25.5768 73.41Z" stroke="#313131" stroke-width="1.54672" stroke-miterlimit="10"/>
<path d="M79.7122 39.46L32.0732 62.5061" stroke="#313131" stroke-width="1.54672" stroke-miterlimit="10"/>
<path d="M86.4403 38.6097C87.8071 38.6097 88.9151 37.5017 88.9151 36.1349C88.9151 34.7681 87.8071 33.6602 86.4403 33.6602C85.0736 33.6602 83.9656 34.7681 83.9656 36.1349C83.9656 37.5017 85.0736 38.6097 86.4403 38.6097Z" fill="#FFF083"/>
<path d="M25.577 68.4612C26.9438 68.4612 28.0518 67.3532 28.0518 65.9865C28.0518 64.6197 26.9438 63.5117 25.577 63.5117C24.2103 63.5117 23.1023 64.6197 23.1023 65.9865C23.1023 67.3532 24.2103 68.4612 25.577 68.4612Z" fill="#FFF083"/>
</g>
<defs>
<linearGradient id="paint0_linear_110_304619" x1="100.129" y1="99.6292" x2="34.6372" y2="118.49" gradientUnits="userSpaceOnUse">
<stop stop-color="#950124"/>
<stop offset="1" stop-color="#DE0801"/>
</linearGradient>
<clipPath id="clip0_110_304619">
<rect width="100" height="99.6473" fill="white" transform="translate(0.5)"/>
</clipPath>
</defs>
</svg>
