<svg width="20" height="21" viewBox="0 0 20 21" fill="none" xmlns="http://www.w3.org/2000/svg">
<path d="M4.69972 6.16699L2.02162 9.57242C1.72034 9.95552 1.73913 10.5 2.06611 10.8615L9.25843 18.8116C9.65543 19.2504 10.3446 19.2504 10.7416 18.8116L17.9339 10.8615C18.2609 10.5 18.2797 9.95552 17.9784 9.57242L15.3003 6.16699C15.1107 5.9259 14.8209 5.78516 14.5142 5.78516H10H5.48577C5.17906 5.78516 4.88931 5.9259 4.69972 6.16699Z" fill="#E07800" stroke="#E07800"/>
<path d="M7.10714 10.4004H12.8929M18 10.4004H2" stroke="#F6EADD" stroke-linecap="round" stroke-linejoin="round"/>
<path d="M6 3.01562L7 3.9387" stroke="#E07800" stroke-linecap="round" stroke-linejoin="round"/>
<path d="M13.5039 3.01953L12.4997 3.93873" stroke="#E07800" stroke-linecap="round" stroke-linejoin="round"/>
<path d="M10 1.63086L10 3.01547" stroke="#E07800" stroke-linecap="round" stroke-linejoin="round"/>
<path d="M5.5 5.78516L10 18.7082" stroke="#F6EADD" stroke-linecap="round"/>
<path d="M14.5 5.78516L10 18.7082" stroke="#F6EADD" stroke-linecap="round"/>
</svg>
